<?xml version="1.0" standalone="no"?><!DOCTYPE svg PUBLIC "-//W3C//DTD SVG 1.1//EN" "http://www.w3.org/Graphics/SVG/1.1/DTD/svg11.dtd"><svg t="1549615802414" class="icon" style="" viewBox="0 0 1423 1024" version="1.1" xmlns="http://www.w3.org/2000/svg" p-id="9001" xmlns:xlink="http://www.w3.org/1999/xlink" width="66.703125" height="48"><defs><style type="text/css"></style></defs><path d="M313.777997 679.348265l49.523997 49.523997 116.060054-42.719173-122.990894-122.864878-42.593157 116.060054z" p-id="9002"></path><path d="M530.524243 0c-283.282304 0-512 228.717696-512 512S247.241939 1024 530.524243 1024s512-228.717696 512-512c0-281.51809-228.717696-512-512-512zM504.943145 711.734187c-1.764214 1.764214-3.402412 1.764214-5.166625 3.402412l-235.52252 85.31233c-6.804824 1.764214-13.609648 0-17.012061-3.402412-5.166626-5.166626-6.804824-11.97145-3.402412-17.01206l85.312331-235.52252c0-1.764214 1.764214-3.402412 3.402412-5.166626l209.941423-213.343834c22.178686 22.178686 42.719173 40.954959 42.719173 40.954959L419.630815 532.540487c-3.402412 3.402412-3.402412 6.804824-3.402412 10.207236 0 3.402412 1.764214 6.804824 3.402412 10.207236 3.402412 1.764214 6.804824 3.402412 10.207236 3.402412 3.402412 0 6.804824-1.764214 10.207236-3.402412l165.584051-165.584051 52.926409 51.162196-165.584051 165.710066c-5.166626 5.166626-5.166626 13.609648 0 18.776274 1.764214 1.764214 6.804824 3.402412 10.207236 3.402412 3.402412 0 6.804824-1.764214 10.207236-3.402412l165.584051-165.584051 40.954959 40.954959L504.943145 711.734187z m297.017967-297.017967l-66.536057 66.536057L561.271967 307.225203l66.536057-66.536057c23.942899-23.942899 63.133645-23.942899 85.31233 0l87.076545 87.076544c25.581098 23.816884 25.581098 63.133645 1.764213 86.95053z" p-id="9003"></path></svg>