<?xml version="1.0" standalone="no"?><!DOCTYPE svg PUBLIC "-//W3C//DTD SVG 1.1//EN" "http://www.w3.org/Graphics/SVG/1.1/DTD/svg11.dtd"><svg t="1549615721773" class="icon" style="" viewBox="0 0 1024 1024" version="1.1" xmlns="http://www.w3.org/2000/svg" p-id="7041" xmlns:xlink="http://www.w3.org/1999/xlink" width="48" height="48"><defs><style type="text/css"></style></defs><path d="M372.256 512.1c0 19.2 3.6 38.3 10.6 56 7 17.7 17.4 34 30.3 47.5 12.9 13.6 28.4 24.4 45.3 31.7 16.9 7.4 35.2 11.2 53.5 11.2 18.3 0 36.6-3.8 53.5-11.2 16.9-7.3 32.4-18.2 45.4-31.7 12.9-13.5 23.3-29.8 30.3-47.5s10.6-36.9 10.6-56c0-19.2-3.6-38.3-10.6-56.1s-17.4-34-30.3-47.5c-12.9-13.6-28.4-24.4-45.4-31.8-16.9-7.3-35.2-11.2-53.5-11.2-18.3 0-36.6 3.8-53.5 11.2-16.9 7.3-32.4 18.2-45.3 31.8-12.9 13.5-23.2 29.8-30.2 47.5s-10.7 36.9-10.7 56.1z m642.8-35.4s-0.6-14-123.8-134.6c-176.2-159.7-333.2-182.6-449.9-167.4-116.8 15.1-204.7 81-211.7 85.1-55.5 32.3-212.1 193.1-221.5 213.2-22.3 47.9 8.2 95.7 8.2 95.7s252.7 284.6 482.4 284.6c229.6 0 338.6-103.4 384.7-141 46.1-37.7 102.7-106 131.6-146.5 20.3-45.4 0-89.1 0-89.1z m-503 281.2c-129.6 0-234.7-110.1-234.7-245.9s105.1-245.9 234.7-245.9 234.7 110.1 234.7 245.9-105.1 245.9-234.7 245.9z" p-id="7042"></path></svg>